<svg width="640" height="640" xmlns="http://www.w3.org/2000/svg" clip-rule="evenodd">

 <g>
  <title>background</title>
  <rect fill="none" id="canvas_background" height="514" width="514" y="-1" x="-1"/>
 </g>
 <g>
  <title>Layer 1</title>
  <path stroke="null" fill="#ffffff" id="svg_1" d="m319.988,2.974879c-176.695,0 -319.988,145.79352 -319.988,325.62544c0,143.883446 91.678,265.90229 218.826,308.980216c16.004,3.016228 21.886,-7.079588 21.886,-15.685608c0,-7.764447 -0.319,-33.41358 -0.449,-60.601356c-89.032,19.700122 -107.8,-38.437574 -107.8,-38.437574c-14.552,-37.644848 -35.529,-47.656202 -35.529,-47.656202c-29.032,-20.229285 2.209,-19.784584 2.209,-19.784584c32.126,2.284559 49.04,33.534677 49.04,33.534677c28.56,49.784047 74.883,35.3725 93.131,27.066679c2.882,-21.045417 11.15,-35.420329 20.315,-43.557225c-71.08,-8.209147 -145.797,-36.141822 -145.797,-160.92656c0,-35.541425 12.52,-64.603659 32.965,-87.393278c-3.33,-8.220341 -14.291,-41.321512 3.083,-86.166027c0,0 26.87,-8.761715 88.029,33.377964c25.512,-7.199667 52.878,-10.829521 80.056,-10.9496c27.2,0.120079 54.614,3.737721 80.162,10.9496c61.076,-42.115256 87.922,-33.377964 87.922,-33.377964c17.398,44.856727 6.485,77.981303 3.154,86.167045c20.516,22.788601 32.93,51.850835 32.93,87.39226c0,125.072725 -74.883,152.571893 -146.117,160.637555c11.481,10.095816 21.733,29.916017 21.733,60.276735c0,43.546031 -0.366,78.641739 -0.366,89.35118c0,8.666059 5.764,18.79851 21.992,15.62455c127.076,-43.100313 218.637,-165.133404 218.637,-308.93137c0,-179.808514 -143.269,-325.626457 -320,-325.626457l-0.023,0.108885l-0.001,0.001018z"/>
 </g>
</svg>